<svg width="33" height="29" viewBox="0 0 33 29" fill="none" xmlns="http://www.w3.org/2000/svg">
<path id="icon" d="M23.9523 29C23.9523 26.6635 23.1396 24.6825 21.5142 23.0571C19.8888 21.4317 17.9079 20.619 15.5713 20.619C17.9079 20.619 19.8888 19.8063 21.5142 18.1809C23.1396 16.5555 23.9523 14.5746 23.9523 12.2381C23.9523 14.5746 24.765 16.5555 26.3904 18.1809C28.0158 19.8063 29.9967 20.619 32.3333 20.619C29.9967 20.619 28.0158 21.4317 26.3904 23.0571C24.765 24.6825 23.9523 26.6635 23.9523 29ZM3.38087 24.4286C2.54278 24.4286 1.81897 24.1365 1.20944 23.5524C0.625315 22.9428 0.333252 22.219 0.333252 21.3809V3.09523C0.333252 2.25713 0.625315 1.54602 1.20944 0.961892C1.81897 0.352369 2.54278 0.0476074 3.38087 0.0476074H12.5237L15.5713 3.09523H27.7618C28.5999 3.09523 29.311 3.39999 29.8952 4.00951C30.5047 4.59364 30.8094 5.30475 30.8094 6.14285V13.4571C30.3777 13.0254 29.9079 12.6444 29.3999 12.3143C28.892 11.9841 28.346 11.7048 27.7618 11.4762V6.14285H14.3142L11.2666 3.09523H3.38087V21.3809H14.0856C14.1364 21.9143 14.2126 22.4349 14.3142 22.9428C14.4412 23.4508 14.6063 23.946 14.8094 24.4286H3.38087Z" fill="#267DF7"/>
</svg>
