<svg width="28" height="31" viewBox="0 0 28 31" fill="none" xmlns="http://www.w3.org/2000/svg">
<path id="icon" d="M11.2 18.4H14V10H11.2V18.4ZM12.6 29.6C10.85 29.6 9.205 29.2733 7.665 28.62C6.14833 27.9433 4.81833 27.045 3.675 25.925C2.555 24.7817 1.65667 23.4517 0.98 21.935C0.326667 20.395 0 18.75 0 17C0 15.25 0.326667 13.6167 0.98 12.1C1.65667 10.56 2.555 9.23001 3.675 8.11001C4.81833 6.96668 6.14833 6.06835 7.665 5.41501C9.205 4.73835 10.85 4.40001 12.6 4.40001C14.0467 4.40001 15.435 4.64501 16.765 5.13501C18.1183 5.60168 19.3667 6.26668 20.51 7.13001L22.47 5.17001L24.43 7.13001L22.47 9.09001C23.3333 10.2333 23.9983 11.4817 24.465 12.835C24.955 14.165 25.2 15.5533 25.2 17C25.2 17.0467 25.2 17.105 25.2 17.175C25.2 17.2217 25.2 17.2683 25.2 17.315C24.6633 16.7783 24.115 16.2417 23.555 15.705C23.0183 15.1683 22.4817 14.6317 21.945 14.095C21.2917 12.0417 20.1133 10.385 18.41 9.12501C16.7067 7.84168 14.77 7.20001 12.6 7.20001C9.87 7.20001 7.54833 8.15668 5.635 10.07C3.745 11.96 2.8 14.27 2.8 17C2.8 19.73 3.745 22.0517 5.635 23.965C7.54833 25.855 9.87 26.8 12.6 26.8C12.6467 26.8 12.6933 26.8 12.74 26.8C12.81 26.8 12.8683 26.8 12.915 26.8C13.335 27.22 13.7433 27.64 14.14 28.06C14.56 28.4567 14.98 28.865 15.4 29.285C14.9333 29.4017 14.4667 29.4833 14 29.53C13.5333 29.5767 13.0667 29.6 12.6 29.6ZM8.4 3.00001V0.200012H16.8V3.00001H8.4ZM20.3 31C20.3 28.8533 19.5533 27.0333 18.06 25.54C16.5667 24.0467 14.7467 23.3 12.6 23.3C14.7467 23.3 16.5667 22.5533 18.06 21.06C19.5533 19.5667 20.3 17.7467 20.3 15.6C20.3 17.7467 21.0467 19.5667 22.54 21.06C24.0333 22.5533 25.8533 23.3 28 23.3C25.8533 23.3 24.0333 24.0467 22.54 25.54C21.0467 27.0333 20.3 28.8533 20.3 31Z" fill="#E4576D"/>
</svg>
