<svg width="33" height="31" viewBox="0 0 33 31" fill="none" xmlns="http://www.w3.org/2000/svg">
<path id="icon" d="M24.2856 17.2857C24.2856 14.9492 23.4729 12.9682 21.8475 11.3429C20.2221 9.71745 18.2411 8.90476 15.9046 8.90476C18.2411 8.90476 20.2221 8.09206 21.8475 6.46666C23.4729 4.84126 24.2856 2.86031 24.2856 0.523804C24.2856 2.86031 25.0983 4.84126 26.7236 6.46666C28.349 8.09206 30.33 8.90476 32.6665 8.90476C30.33 8.90476 28.349 9.71745 26.7236 11.3429C25.0983 12.9682 24.2856 14.9492 24.2856 17.2857ZM3.71412 31C2.87603 31 2.15222 30.7079 1.54269 30.1238C0.958567 29.5143 0.666504 28.7905 0.666504 27.9524V9.66666C0.666504 8.82857 0.958567 8.11745 1.54269 7.53333C2.15222 6.9238 2.87603 6.61904 3.71412 6.61904H14.3808C14.3808 6.9746 14.3808 7.34285 14.3808 7.7238C14.3808 8.10476 14.3808 8.49841 14.3808 8.90476C14.3808 9.03174 14.3808 9.15872 14.3808 9.28571C14.3808 9.41269 14.3808 9.53968 14.3808 9.66666H3.71412V27.9524H28.0951V15.7619C28.6792 15.7619 29.2252 15.7619 29.7332 15.7619C30.2411 15.7619 30.7109 15.7619 31.1427 15.7619V27.9524C31.1427 28.7905 30.8379 29.5143 30.2284 30.1238C29.6443 30.7079 28.9332 31 28.0951 31H3.71412ZM18.4189 23.9524L23.5236 18.8095C23.1681 18.454 22.8125 18.0984 22.457 17.7429C22.1014 17.3873 21.7459 17.0317 21.3903 16.6762L18.4189 19.6476L12.857 14.0857L5.23793 21.7048L7.37127 23.8762L12.857 18.4286L18.4189 23.9524Z" fill="#B580D1"/>
</svg>
