<svg width="18" height="19" viewBox="0 0 18 19" fill="none" xmlns="http://www.w3.org/2000/svg">
<path id="icon" d="M2.57143 18.5V15.2857L9.04286 8.81429L12.2571 12.0286L5.78571 18.5H2.57143ZM4.28571 16.7857H5.05714L9.81429 12.0286L9.04286 11.2571L4.28571 16.0143V16.7857ZM13.1571 11.1286L9.94286 7.91429L14.5286 3.32857C14.6143 3.24286 14.7071 3.17857 14.8071 3.13571C14.9071 3.09286 15.0143 3.07143 15.1286 3.07143C15.2429 3.07143 15.35 3.09286 15.45 3.13571C15.55 3.17857 15.6429 3.24286 15.7286 3.32857L17.7429 5.34286C17.8286 5.42857 17.8929 5.52143 17.9357 5.62143C17.9786 5.72143 18 5.82857 18 5.94286C18 6.05714 17.9786 6.16429 17.9357 6.26429C17.8929 6.36429 17.8286 6.45714 17.7429 6.54286L13.1571 11.1286ZM4.71429 9.92857C4.71429 8.61429 4.25714 7.5 3.34286 6.58571C2.42857 5.67143 1.31429 5.21429 0 5.21429C1.31429 5.21429 2.42857 4.75714 3.34286 3.84286C4.25714 2.92857 4.71429 1.81429 4.71429 0.5C4.71429 1.81429 5.17143 2.92857 6.08571 3.84286C7 4.75714 8.11429 5.21429 9.42857 5.21429C8.11429 5.21429 7 5.67143 6.08571 6.58571C5.17143 7.5 4.71429 8.61429 4.71429 9.92857Z" fill="#444746"/>
</svg>
