<svg width="20" height="20" viewBox="0 0 20 20" fill="none" xmlns="http://www.w3.org/2000/svg">
<path id="icon" d="M13.2 17.5L16 14.7V17H17V13H13V14H15.3L12.5 16.8L13.2 17.5ZM2 18C1.45 18 0.975 17.8083 0.575 17.425C0.191667 17.025 0 16.55 0 16V2C0 1.45 0.191667 0.983334 0.575 0.600001C0.975 0.2 1.45 0 2 0H16C16.55 0 17.0167 0.2 17.4 0.600001C17.8 0.983334 18 1.45 18 2V8.7C17.6833 8.55 17.3583 8.425 17.025 8.325C16.6917 8.20833 16.35 8.125 16 8.075V2H2V16H8.05C8.1 16.3667 8.175 16.7167 8.275 17.05C8.39167 17.3833 8.525 17.7 8.675 18H2ZM2 15C2 15.1833 2 15.3583 2 15.525C2 15.675 2 15.8333 2 16V2V8.075C2 8.04167 2 8.025 2 8.025C2 8.00833 2 8 2 8C2 8 2 8.68333 2 10.05C2 11.4167 2 13.0667 2 15ZM4 14H8.075C8.125 13.65 8.2 13.3083 8.3 12.975C8.41667 12.6417 8.54167 12.3167 8.675 12H4V14ZM4 10H10.1C10.6333 9.5 11.225 9.08333 11.875 8.75C12.5417 8.41667 13.25 8.19167 14 8.075V8H4V10ZM4 6H14V4H4V6ZM15 20C13.6167 20 12.4333 19.5167 11.45 18.55C10.4833 17.5667 10 16.3833 10 15C10 13.6167 10.4833 12.4417 11.45 11.475C12.4333 10.4917 13.6167 10 15 10C16.3833 10 17.5583 10.4917 18.525 11.475C19.5083 12.4417 20 13.6167 20 15C20 16.3833 19.5083 17.5667 18.525 18.55C17.5583 19.5167 16.3833 20 15 20Z" fill="white"/>
</svg>
