<svg width="20" height="20" viewBox="0 0 20 20" fill="none" xmlns="http://www.w3.org/2000/svg">
<path id="icon" d="M4 12H7.05L12.05 7C12.2 6.85 12.3083 6.68333 12.375 6.5C12.4583 6.3 12.5 6.10833 12.5 5.925C12.5 5.74167 12.4583 5.56667 12.375 5.4C12.2917 5.21667 12.1833 5.05 12.05 4.9L11.15 3.95C11 3.8 10.8333 3.69167 10.65 3.625C10.4667 3.54167 10.275 3.5 10.075 3.5C9.89167 3.5 9.7 3.54167 9.5 3.625C9.31667 3.69167 9.15 3.8 9 3.95L4 8.95V12ZM5.5 10.5V9.55L8.025 7.025L8.525 7.475L8.975 7.975L6.45 10.5H5.5ZM8.525 7.475L8.975 7.975L8.025 7.025L8.525 7.475ZM9.175 12H16V10H11.175L9.175 12ZM0 20V2C0 1.45 0.191667 0.983333 0.575 0.599999C0.975 0.2 1.45 0 2 0H18C18.55 0 19.0167 0.2 19.4 0.599999C19.8 0.983333 20 1.45 20 2V14C20 14.55 19.8 15.025 19.4 15.425C19.0167 15.8083 18.55 16 18 16H4L0 20ZM3.15 14H18V2H2V15.125L3.15 14Z" fill="#444746"/>
</svg>
