<svg width="21" height="22" viewBox="0 0 21 22" fill="none" xmlns="http://www.w3.org/2000/svg">
<path id="icon" d="M15.5 11.5C15.5 9.96667 14.9667 8.66667 13.9 7.6C12.8333 6.53333 11.5333 6 10 6C11.5333 6 12.8333 5.46667 13.9 4.4C14.9667 3.33333 15.5 2.03333 15.5 0.5C15.5 2.03333 16.0333 3.33333 17.1 4.4C18.1667 5.46667 19.4667 6 21 6C19.4667 6 18.1667 6.53333 17.1 7.6C16.0333 8.66667 15.5 9.96667 15.5 11.5ZM0 21.5V3.5C0 2.95 0.191667 2.48333 0.575 2.1C0.975 1.7 1.45 1.5 2 1.5H12V3.5H2V16.625L3.15 15.5H18V9.475H20V15.5C20 16.05 19.8 16.525 19.4 16.925C19.0167 17.3083 18.55 17.5 18 17.5H4L0 21.5ZM4 13.5V11.5H14V13.5H4ZM4 10.5V8.5H13V10.5H4ZM4 7.5V5.5H9V7.5H4Z" fill="#001D35"/>
</svg>
