<svg width="52" height="52" viewBox="0 0 52 52" fill="none" xmlns="http://www.w3.org/2000/svg">
<path id="icon" d="M38.381 27.2381C38.381 23.4413 37.0603 20.2222 34.4191 17.581C31.7778 14.9397 28.5587 13.619 24.7619 13.619C28.5587 13.619 31.7778 12.2984 34.4191 9.65714C37.0603 7.01587 38.381 3.79682 38.381 0C38.381 3.79682 39.7016 7.01587 42.3429 9.65714C44.9841 12.2984 48.2032 13.619 52 13.619C48.2032 13.619 44.9841 14.9397 42.3429 17.581C39.7016 20.2222 38.381 23.4413 38.381 27.2381ZM0 52V7.42857C0 6.06667 0.474603 4.91111 1.42381 3.9619C2.41429 2.97143 3.59048 2.47619 4.95238 2.47619H29.7143V7.42857H4.95238V39.9286L7.8 37.1429H44.5714V22.2238H49.5238V37.1429C49.5238 38.5048 49.0286 39.681 48.0381 40.6714C47.0889 41.6206 45.9333 42.0952 44.5714 42.0952H9.90476L0 52ZM9.90476 32.1905V27.2381H34.6667V32.1905H9.90476ZM9.90476 24.7619V19.8095H32.1905V24.7619H9.90476ZM9.90476 17.3333V12.381H22.2857V17.3333H9.90476Z" fill="#0B57D0"/>
</svg>
