<svg width="52" height="49" viewBox="0 0 52 49" fill="none" xmlns="http://www.w3.org/2000/svg">
<path id="icon" d="M0 47.8692L11.6028 17.0093H17.1308L28.7336 47.8692H23.3878L20.5935 39.972H8.14019L5.34579 47.8692H0ZM9.71963 35.4766H18.9533L14.4579 22.7196H14.215L9.71963 35.4766ZM38.8785 48.5981C36.5701 48.5981 34.6464 47.9097 33.1075 46.5327C31.609 45.1153 30.8598 43.3333 30.8598 41.1869C30.8598 39 31.6698 37.2181 33.2897 35.8411C34.9502 34.4642 37.0966 33.7757 39.729 33.7757C40.7009 33.7757 41.7539 33.8769 42.8879 34.0794C44.0623 34.2414 45.0748 34.5452 45.9252 34.9907V33.7757C45.9252 32.4798 45.4393 31.4065 44.4673 30.5561C43.4953 29.7056 42.2399 29.2804 40.7009 29.2804C39.6075 29.2804 38.5545 29.5234 37.5421 30.0093C36.5296 30.4548 35.6791 31.1433 34.9907 32.0748L31.5888 29.5234C32.5607 28.1059 33.8567 27.0327 35.4766 26.3037C37.0966 25.5343 38.919 25.1495 40.9439 25.1495C43.9408 25.1495 46.2897 25.9595 47.9907 27.5794C49.6916 29.1589 50.5421 31.3458 50.5421 34.1402V47.8692H45.9252V45.1963H45.6822C44.9938 46.2492 44.0421 47.0794 42.8271 47.6869C41.6526 48.2944 40.3364 48.5981 38.8785 48.5981ZM39.8505 44.7103C41.5109 44.7103 42.9283 44.1231 44.1028 42.9486C45.3178 41.7336 45.9252 40.2959 45.9252 38.6355C45.1963 38.271 44.3863 37.9875 43.4953 37.785C42.6044 37.5421 41.7539 37.4206 40.9439 37.4206C39.243 37.4206 37.947 37.7445 37.0561 38.3925C36.1651 39 35.7196 39.891 35.7196 41.0654C35.7196 42.1589 36.1044 43.0498 36.8738 43.7383C37.6433 44.3863 38.6355 44.7103 39.8505 44.7103ZM41.0654 21.9299C41.0654 18.8925 39.9922 16.3006 37.8458 14.1542C35.6994 12.0078 33.1075 10.9346 30.0701 10.9346C33.1075 10.9346 35.6994 9.88162 37.8458 7.7757C39.9922 5.62928 41.0654 3.03738 41.0654 0C41.0654 3.03738 42.1184 5.62928 44.2243 7.7757C46.3707 9.88162 48.9626 10.9346 52 10.9346C48.9626 10.9346 46.3707 12.0078 44.2243 14.1542C42.1184 16.3006 41.0654 18.8925 41.0654 21.9299Z" fill="#E4576D"/>
</svg>
