<svg width="52" height="50" viewBox="0 0 52 50" fill="none" xmlns="http://www.w3.org/2000/svg">
<path id="icon" d="M25.7898 14.1637H32.2815C32.5175 14.1637 32.7536 14.2031 32.9896 14.2817C33.2257 14.3211 33.4421 14.4194 33.6388 14.5768L40.6617 19.4161C40.7403 19.4948 40.819 19.5735 40.8977 19.6521C41.0157 19.7308 41.1141 19.8095 41.1928 19.8882L44.1436 23.4882L49.573 19.239C49.8877 19.003 50.2418 18.9046 50.6353 18.944C51.0287 18.944 51.3631 19.1013 51.6385 19.4161C51.9139 19.7308 52.032 20.0849 51.9926 20.4784C51.9926 20.8325 51.8549 21.1472 51.5795 21.4226L45.678 27.4422C45.2845 27.875 44.7927 28.1307 44.2026 28.2094C43.6518 28.2487 43.1403 28.111 42.6682 27.7963L38.7732 25.2586L34.9962 28.8586L40.0125 34.8191C40.0912 34.8978 40.1502 34.9765 40.1895 35.0552C40.2289 35.0945 40.2682 35.1535 40.3076 35.2322L47.0943 47.3894C47.2911 47.7042 47.3304 48.0583 47.2124 48.4517C47.1337 48.8058 46.937 49.0812 46.6222 49.2779C46.3075 49.4746 45.973 49.5533 45.6189 49.514C45.2649 49.4746 44.9501 49.3173 44.6747 49.0419L35.8814 38.7141L28.6225 33.0487L20.1243 39.6584C19.7702 39.9731 19.3571 40.1502 18.8849 40.1895C18.4522 40.1895 18.0194 40.0912 17.5866 39.8945L5.54745 33.5208C5.2327 33.3241 4.99664 33.0683 4.83927 32.7536C4.72124 32.3995 4.72124 32.0454 4.83927 31.6913C4.9573 31.3372 5.19336 31.0815 5.54745 30.9241C5.90155 30.7667 6.27531 30.7274 6.66875 30.8061L17.6456 33.9929L29.5667 19.4161L26.2029 18.4128L18.7079 22.3078C18.3538 22.5046 17.98 22.5439 17.5866 22.4259C17.2325 22.3078 16.9571 22.0915 16.7604 21.7767C16.5637 21.462 16.5047 21.1079 16.5833 20.7144C16.662 20.321 16.8587 20.0062 17.1735 19.7702L24.4324 14.5768C24.6291 14.4194 24.8455 14.3211 25.0816 14.2817C25.3176 14.2031 25.5537 14.1637 25.7898 14.1637ZM42.5501 16.5243C41.2518 16.5243 40.1305 16.0719 39.1863 15.167C38.2814 14.2227 37.8289 13.1014 37.8289 11.8031C37.8289 10.5048 38.2814 9.40313 39.1863 8.49822C40.1305 7.55398 41.2518 7.08185 42.5501 7.08185C43.8485 7.08185 44.9501 7.55398 45.855 8.49822C46.7993 9.40313 47.2714 10.5048 47.2714 11.8031C47.2714 13.1014 46.7993 14.2227 45.855 15.167C44.9501 16.0719 43.8485 16.5243 42.5501 16.5243ZM10.6818 21.3046C10.6818 18.3538 9.63919 15.8358 7.55398 13.7506C5.46877 11.6654 2.95077 10.6228 0 10.6228C2.95077 10.6228 5.46877 9.59985 7.55398 7.55398C9.63919 5.46877 10.6818 2.95077 10.6818 0C10.6818 2.95077 11.7047 5.46877 13.7506 7.55398C15.8358 9.59985 18.3538 10.6228 21.3046 10.6228C18.3538 10.6228 15.8358 11.6654 13.7506 13.7506C11.7047 15.8358 10.6818 18.3538 10.6818 21.3046Z" fill="#B580D1"/>
</svg>
