<svg width="21" height="22" viewBox="0 0 21 22" fill="none" xmlns="http://www.w3.org/2000/svg">
<path id="icon" d="M14 21.5L11 18.5L14 15.5L17 18.5L14 21.5ZM6 18.5L0 12.5L6 6.5L12 12.5L6 18.5ZM15.5 11.5C15.5 9.96667 14.9667 8.66667 13.9 7.6C12.8333 6.53333 11.5333 6 10 6C11.5333 6 12.8333 5.46667 13.9 4.4C14.9667 3.33333 15.5 2.03333 15.5 0.5C15.5 2.03333 16.0333 3.33333 17.1 4.4C18.1667 5.46667 19.4667 6 21 6C19.4667 6 18.1667 6.53333 17.1 7.6C16.0333 8.66667 15.5 9.96667 15.5 11.5Z" fill="white"/>
</svg>
