<svg width="32" height="32" viewBox="0 0 32 32" fill="none" xmlns="http://www.w3.org/2000/svg">
<g id="Frame">
<g id="Vector">
<path fill-rule="evenodd" clip-rule="evenodd" d="M12.6665 8.00001C13.2404 8.00001 13.7499 8.36725 13.9314 8.91171L15.8873 14.7793L21.7548 16.7351C22.2993 16.9166 22.6665 17.4261 22.6665 18C22.6665 18.5739 22.2993 19.0834 21.7548 19.2649L15.8873 21.2208L13.9314 27.0883C13.7499 27.6328 13.2404 28 12.6665 28C12.0926 28 11.5831 27.6328 11.4016 27.0883L9.44575 21.2208L3.5782 19.2649C3.03374 19.0834 2.6665 18.5739 2.6665 18C2.6665 17.4261 3.03374 16.9166 3.5782 16.7351L9.44574 14.7793L11.4016 8.91171C11.5831 8.36725 12.0926 8.00001 12.6665 8.00001ZM12.6665 13.5497L11.7647 16.255C11.632 16.6531 11.3196 16.9655 10.9215 17.0983L8.21621 18L10.9215 18.9018C11.3196 19.0345 11.632 19.3469 11.7647 19.745L12.6665 22.4503L13.5683 19.745C13.701 19.3469 14.0134 19.0345 14.4115 18.9018L17.1168 18L14.4115 17.0983C14.0134 16.9655 13.701 16.6531 13.5683 16.255L12.6665 13.5497Z" fill="white"/>
<path fill-rule="evenodd" clip-rule="evenodd" d="M23.3332 3.20001C23.6775 3.20001 23.9832 3.42036 24.0921 3.74703L25.1323 6.86756L28.2528 7.90773C28.5795 8.01662 28.7998 8.32233 28.7998 8.66668C28.7998 9.01102 28.5795 9.31673 28.2528 9.42563L25.1323 10.4658L24.0921 13.5863C23.9832 13.913 23.6775 14.1333 23.3332 14.1333C22.9888 14.1333 22.6831 13.913 22.5742 13.5863L21.534 10.4658L18.4135 9.42563C18.0868 9.31673 17.8665 9.01102 17.8665 8.66668C17.8665 8.32233 18.0868 8.01662 18.4135 7.90773L21.534 6.86756L22.5742 3.74703C22.6831 3.42036 22.9888 3.20001 23.3332 3.20001Z" fill="white"/>
<path fill-rule="evenodd" clip-rule="evenodd" d="M12.6665 8.00001C13.2404 8.00001 13.7499 8.36725 13.9314 8.91171L15.8873 14.7793L21.7548 16.7351C22.2993 16.9166 22.6665 17.4261 22.6665 18C22.6665 18.5739 22.2993 19.0834 21.7548 19.2649L15.8873 21.2208L13.9314 27.0883C13.7499 27.6328 13.2404 28 12.6665 28C12.0926 28 11.5831 27.6328 11.4016 27.0883L9.44575 21.2208L3.5782 19.2649C3.03374 19.0834 2.6665 18.5739 2.6665 18C2.6665 17.4261 3.03374 16.9166 3.5782 16.7351L9.44574 14.7793L11.4016 8.91171C11.5831 8.36725 12.0926 8.00001 12.6665 8.00001ZM12.6665 13.5497L11.7647 16.255C11.632 16.6531 11.3196 16.9655 10.9215 17.0983L8.21621 18L10.9215 18.9018C11.3196 19.0345 11.632 19.3469 11.7647 19.745L12.6665 22.4503L13.5683 19.745C13.701 19.3469 14.0134 19.0345 14.4115 18.9018L17.1168 18L14.4115 17.0983C14.0134 16.9655 13.701 16.6531 13.5683 16.255L12.6665 13.5497Z" stroke="#C4C7C5" stroke-linecap="round" stroke-linejoin="round"/>
<path fill-rule="evenodd" clip-rule="evenodd" d="M23.3332 3.20001C23.6775 3.20001 23.9832 3.42036 24.0921 3.74703L25.1323 6.86756L28.2528 7.90773C28.5795 8.01662 28.7998 8.32233 28.7998 8.66668C28.7998 9.01102 28.5795 9.31673 28.2528 9.42563L25.1323 10.4658L24.0921 13.5863C23.9832 13.913 23.6775 14.1333 23.3332 14.1333C22.9888 14.1333 22.6831 13.913 22.5742 13.5863L21.534 10.4658L18.4135 9.42563C18.0868 9.31673 17.8665 9.01102 17.8665 8.66668C17.8665 8.32233 18.0868 8.01662 18.4135 7.90773L21.534 6.86756L22.5742 3.74703C22.6831 3.42036 22.9888 3.20001 23.3332 3.20001Z" stroke="#C4C7C5" stroke-linecap="round" stroke-linejoin="round"/>
</g>
</g>
</svg>
