<svg width="25" height="25" viewBox="0 0 25 25" fill="none" xmlns="http://www.w3.org/2000/svg">
<g id="rate_review">
<mask id="mask0_13_123063" style="mask-type:alpha" maskUnits="userSpaceOnUse" x="0" y="0" width="25" height="25">
<rect id="Bounding box" x="0.414062" y="0.74585" width="24" height="24" fill="#D9D9D9"/>
</mask>
<g mask="url(#mask0_13_123063)">
<path id="rate_review_2" d="M6.41406 14.7458H9.46406L14.4641 9.74585C14.6141 9.59585 14.7266 9.42502 14.8016 9.23335C14.8766 9.04168 14.9141 8.85418 14.9141 8.67085C14.9141 8.48752 14.8724 8.30835 14.7891 8.13335C14.7057 7.95835 14.5974 7.79585 14.4641 7.64585L13.5641 6.69585C13.4141 6.54585 13.2474 6.43335 13.0641 6.35835C12.8807 6.28335 12.6891 6.24585 12.4891 6.24585C12.3057 6.24585 12.1182 6.28335 11.9266 6.35835C11.7349 6.43335 11.5641 6.54585 11.4141 6.69585L6.41406 11.6958V14.7458ZM7.91406 13.2458V12.2958L10.4391 9.77085L10.9391 10.2208L11.3891 10.7208L8.86406 13.2458H7.91406ZM10.9391 10.2208L11.3891 10.7208L10.4391 9.77085L10.9391 10.2208ZM11.5891 14.7458H18.4141V12.7458H13.5891L11.5891 14.7458ZM2.41406 22.7458V4.74585C2.41406 4.19585 2.6099 3.72502 3.00156 3.33335C3.39323 2.94168 3.86406 2.74585 4.41406 2.74585H20.4141C20.9641 2.74585 21.4349 2.94168 21.8266 3.33335C22.2182 3.72502 22.4141 4.19585 22.4141 4.74585V16.7458C22.4141 17.2958 22.2182 17.7667 21.8266 18.1583C21.4349 18.55 20.9641 18.7458 20.4141 18.7458H6.41406L2.41406 22.7458ZM5.56406 16.7458H20.4141V4.74585H4.41406V17.8708L5.56406 16.7458Z" fill="white"/>
</g>
</g>
</svg>
