<svg width="22" height="20" viewBox="0 0 22 20" fill="none" xmlns="http://www.w3.org/2000/svg">
<path id="icon" d="M5.5 18.0002H6.925L16.7 8.22524L15.275 6.80024L5.5 16.5752V18.0002ZM3.5 20.0002V15.7502L16.7 2.57524C16.9 2.39191 17.1167 2.25024 17.35 2.15024C17.6 2.05024 17.8583 2.00024 18.125 2.00024C18.3917 2.00024 18.65 2.05024 18.9 2.15024C19.15 2.25024 19.3667 2.40024 19.55 2.60024L20.925 4.00024C21.125 4.18358 21.2667 4.40024 21.35 4.65024C21.45 4.90024 21.5 5.15024 21.5 5.40024C21.5 5.66691 21.45 5.92524 21.35 6.17524C21.2667 6.40858 21.125 6.62524 20.925 6.82524L7.75 20.0002H3.5ZM15.975 7.52524L15.275 6.80024L16.7 8.22524L15.975 7.52524ZM6 11.0002C6 9.46691 5.46667 8.16691 4.4 7.10024C3.33333 6.03358 2.03333 5.50024 0.5 5.50024C2.03333 5.50024 3.33333 4.96691 4.4 3.90024C5.46667 2.83358 6 1.53358 6 0.000244141C6 1.53358 6.53333 2.83358 7.6 3.90024C8.66667 4.96691 9.96667 5.50024 11.5 5.50024C9.96667 5.50024 8.66667 6.03358 7.6 7.10024C6.53333 8.16691 6 9.46691 6 11.0002Z" fill="white"/>
</svg>
