<svg width="180" height="180" viewBox="0 0 180 180" fill="none" xmlns="http://www.w3.org/2000/svg">
<g id="No transaction">
<path id="Vector" d="M81.6997 13.1002C86.4997 8.9002 93.6997 8.9002 98.4997 13.1002L112.5 25.3002C114.7 27.1002 117.2 28.2002 120 28.4002L138.6 29.6002C145 30.0002 150 35.1002 150.5 41.5002L151.7 60.1002C151.8 62.9002 153 65.6002 154.8 67.6002L167 81.6002C171.2 86.4002 171.2 93.6002 167 98.4002L154.8 112.4C153 114.6 151.9 117.1 151.7 119.9L150.5 138.5C150.1 144.9 145 149.9 138.6 150.4L120 151.6C117.2 151.7 114.5 152.9 112.5 154.7L98.4997 166.9C93.6997 171.1 86.4997 171.1 81.6997 166.9L67.6997 154.7C65.4997 152.9 62.9997 151.8 60.1997 151.6L41.5997 150.4C35.1997 150 30.1997 144.9 29.6997 138.5L28.4997 119.9C28.3997 117.1 27.1997 114.4 25.3997 112.4L13.0997 98.5002C8.89971 93.7002 8.89971 86.5002 13.0997 81.7002L25.2997 67.7002C27.0997 65.5002 28.1997 63.0002 28.3997 60.2002L29.5997 41.6002C29.9997 35.2002 35.0997 30.2002 41.4997 29.7002L60.0997 28.5002C62.8997 28.4002 65.5997 27.2002 67.5997 25.4002L81.6997 13.1002Z" fill="#EAF0F8"/>
<path id="Vector_2" opacity="0.12" d="M103.7 132.3V106.5L120.1 116C122.7 117.5 122.7 121.3 120.1 122.8L103.7 132.3Z" fill="#0B57D0"/>
<path id="Vector_3" d="M120.1 60.0002L84.6999 41.2002C79.2999 38.4002 73.9999 40.2002 70.8999 43.1002C68.8999 44.9002 67.7999 47.5002 67.5999 50.3002L67.4999 63.6002C67.4999 81.9002 67.2999 101.1 67.2999 101.1C66.7999 105.3 64.4999 114.6 54.4999 118.4L53.5999 121.9L59.6999 121.4L58.5999 124.9L64.6999 124.4L63.7999 127.9L69.9999 127.4L69.1999 131L75.4999 130.5L74.6999 134.1L80.7999 133.6L79.9999 137L86.1999 136.5L85.3999 140L91.5999 139.5C91.5999 139.5 101.5 134.3 101.6 134.3C105.1 131.6 107.6 127.8 107.8 122.9V70.9002C107.8 63.0002 120.1 60.0002 120.1 60.0002Z" fill="white"/>
<path id="Vector_4" d="M126.2 103.5V68.7003C126.1 63.5003 122 59.4003 116.8 59.4003C111.6 59.4003 107.5 63.6003 107.5 68.7003L107.7 94.2003L110.6 92.3003L113.7 99.7003L120 97.2003L126.2 103.5Z" fill="#A8C7FA"/>
<path id="Vector_5" d="M76.5 55.0002L98.4 68.4002" stroke="#D3E3FD" stroke-width="4" stroke-miterlimit="10" stroke-linecap="round"/>
<path id="Vector_6" d="M76.5 70.7002L98.4 84.2002" stroke="#D3E3FD" stroke-width="4" stroke-miterlimit="10" stroke-linecap="round"/>
<path id="Vector_7" d="M76.5 86.4003L98.4 99.9003" stroke="#D3E3FD" stroke-width="4" stroke-miterlimit="10" stroke-linecap="round"/>
<path id="Vector_8" d="M80.2002 115.6L94.1002 124.1" stroke="#D3E3FD" stroke-width="4" stroke-miterlimit="10" stroke-linecap="round"/>
</g>
</svg>
